<svg width="100" height="100" xmlns="http://www.w3.org/2000/svg">
 <g id="Layer_1">
  <title>Layer 1</title>
  <text fill="#000000" stroke-width="0" x="-32.37336" y="8.31943" id="svg_1" font-size="10" font-family="Noto Sans JP" text-anchor="start" xml:space="preserve" stroke="#000" transform="translate(-137.747 24.5031) matrix(2.94879 0 0 6.10217 -33.0536 -40.4786)">python logo svg</text>
  <path stroke="#000" id="svg_2" d="m87.28069,18.23328l-38.7834,33.59918l38.7834,33.59915l-22.16431,19.21303l-60.94768,-52.81218l60.94768,-52.81621" stroke-width="0" fill="#000000"/>
  <path id="svg_3" d="m38.35798,43.7895l-0.15452,8.63678l0.15452,8.63677l-0.0883,4.93877l-0.24282,-13.57554l0.24282,-13.57658" stroke-width="0" stroke="#000" fill="#000000"/>
  <path id="svg_4" d="m24.52033,29.65904l-0.42374,0.42371l0.42374,0.42371l-0.24216,0.24229l-0.6659,-0.66601l0.6659,-0.66606" stroke-width="0" stroke="#000" fill="#000000"/>
  <path id="svg_5" d="m0.79865,107.41345l-0.42374,0.42371l0.42374,0.42371l-0.24216,0.24229l-0.6659,-0.66601l0.6659,-0.66606" stroke-width="0" stroke="#000" fill="#000000"/>
  <path stroke="#000" id="svg_6" d="m40.33479,70.51306l-0.42374,0.42371l0.42374,0.42371l-0.24216,0.24229l-0.6659,-0.66601l0.6659,-0.66606" stroke-width="0" fill="#000000"/>
 </g>

</svg>