<svg width="100" height="100" xmlns="http://www.w3.org/2000/svg">
 <g id="Layer_1">
  <title>Layer 1</title>
  <path id="svg_10" d="m-64.83977,-14.97507l0.41758,-0.41758l-0.41758,-0.41759l0.23867,-0.23864l0.65631,0.65623l-0.65631,0.65643" stroke-width="0" stroke="#000" fill="#000000"/>
  <path stroke="#000" id="svg_13" d="m68.35234,38.01513c0,0 3.45263,-15.24576 0,-20.41021c-3.45669,-5.16445 -4.83531,-8.60452 -12.43597,-11.0673s-4.83124,-1.97196 -10.35788,-1.72004c-5.52664,0.24758 -10.13421,3.44007 -10.13421,5.16011c0,0 -3.45263,0.24758 -4.83124,1.72438c-1.38268,1.4768 -3.68443,8.35694 -3.68443,10.08132s1.15088,13.28249 2.30175,15.74093l-1.37048,0.49082c-1.15088,14.25979 4.6035,15.98416 4.6035,15.98416c2.06995,13.28249 4.14397,7.62723 4.14397,11.0673s-2.07402,2.2152 -2.07402,2.2152s-1.83815,5.40769 -6.44165,7.3753c-4.6035,1.96327 -30.15864,12.53541 -32.23672,14.7506c-2.07808,2.21954 -1.84221,12.54409 -1.84221,12.54409l109.58534,0c0,0 0.23994,-10.32455 -1.83815,-12.54409c-2.08215,-2.21954 -27.63729,-12.78733 -32.24079,-14.7506c-4.6035,-1.96762 -6.44165,-7.3753 -6.44165,-7.3753s-2.07402,1.22487 -2.07402,-2.2152s2.07402,2.2152 4.14803,-11.0673c0,0 5.75031,-1.72438 4.6035,-15.98416l-1.38268,0z" stroke-width="0" fill="#000000"/>
  <path id="svg_14" d="m67.2372,82.78542c0,0 0.3025,-1.50383 0,-2.01325c-0.30285,-0.50942 -0.42364,-0.84874 -1.08956,-1.09167s-0.42328,-0.19451 -0.90749,-0.16966c-0.48421,0.02442 -0.88789,0.33933 -0.88789,0.50899c0,0 -0.3025,0.02442 -0.42328,0.17009c-0.12114,0.14567 -0.3228,0.82432 -0.3228,0.99442s0.10083,1.31018 0.20166,1.55268l-0.12007,0.04841c-0.10083,1.40658 0.40333,1.57667 0.40333,1.57667c0.18136,1.31018 0.36307,0.75235 0.36307,1.09167s-0.18171,0.21851 -0.18171,0.21851s-0.16105,0.53341 -0.56437,0.7275c-0.40333,0.19366 -2.6423,1.23649 -2.82436,1.45499c-0.18207,0.21893 -0.1614,1.23734 -0.1614,1.23734l9.60113,0c0,0 0.02102,-1.01841 -0.16105,-1.23734c-0.18242,-0.21893 -2.42139,-1.26133 -2.82472,-1.45499c-0.40333,-0.19408 -0.56437,-0.7275 -0.56437,-0.7275s-0.18171,0.12082 -0.18171,-0.21851s0.18171,0.21851 0.36342,-1.09167c0,0 0.5038,-0.17009 0.40333,-1.57667l-0.12114,0z" stroke-width="0" stroke="#000" fill="#000000"/>
 </g>

</svg>